# xmcd
#
# Track frame offsets:
#	150
#	20427
#	45390
#	62395
#	83317
#	103854
#	120682
#	138160
#	158120
#	174687
#	189345
#	206590
#	225985
#
# Disc length: 3269 seconds
#
# Revision: 1
# Processed by: cddbd v1.5.2PL0 Copyright (c) Steve Scherf et al.
# Submitted via: audiograbber 1.83.01
#
DISCID=970cc30d
DTITLE=Winkel - De zwarte hand
DYEAR=1997
DGENRE=Pop
TTITLE0=Winkel - Adem in de lucht
TTITLE1=Winkel - Watervlugge minuten
TTITLE2=Winkel - De zwarte hand
TTITLE3=Winkel - Kaart uit Finland
TTITLE4=Winkel - Papieren tijger
TTITLE5=Winkel - Verder dan de helft
TTITLE6=Winkel - Wilde bloem
TTITLE7=Winkel - Eenzame man
TTITLE8=Winkel - Gemaakt voor mij
TTITLE9=Winkel - Kolossaal
TTITLE10=Winkel - Iedereen heeft zich wel eens gebrand
TTITLE11=Winkel - Nooit de bedoeling
TTITLE12=Winkel - Hou jou
EXTD=
EXTT0=
EXTT1=
EXTT2=
EXTT3=
EXTT4=
EXTT5=
EXTT6=
EXTT7=
EXTT8=
EXTT9=
EXTT10=
EXTT11=
EXTT12=
PLAYORDER=
